{
    "asset" : {
        "generator" : "Khronos glTF Blender I/O v1.7.33",
        "version" : "2.0"
    },
    "scene" : 0,
    "scenes" : [
        {
            "name" : "Scene",
            "nodes" : [
                0,
                1
            ]
        }
    ],
    "nodes" : [
        {
            "mesh" : 0,
            "name" : "Phone_Mesh",
            "scale" : [
                0.06999999284744263,
                0.06999999284744263,
                0.06999999284744263
            ]
        },
        {
            "mesh" : 1,
            "name" : "Wire_Mesh",
            "scale" : [
                0.06999999284744263,
                0.06999999284744263,
                0.06999999284744263
            ],
            "translation" : [
                -0.1551637053489685,
                0,
                0
            ]
        }
    ],
    "materials" : [
        {
            "doubleSided" : true,
            "name" : "Material.001",
            "pbrMetallicRoughness" : {
                "baseColorFactor" : [
                    0.023649942129850388,
                    0.19755487143993378,
                    0.8000000715255737,
                    1
                ],
                "metallicFactor" : 0,
                "roughnessFactor" : 0.5
            }
        },
        {
            "doubleSided" : true,
            "name" : "Material.002",
            "pbrMetallicRoughness" : {
                "baseColorFactor" : [
                    0.020332830026745796,
                    0.0591372512280941,
                    0.07489398121833801,
                    1
                ],
                "metallicFactor" : 0,
                "roughnessFactor" : 0.5
            }
        }
    ],
    "meshes" : [
        {
            "name" : "Cube.001",
            "primitives" : [
                {
                    "attributes" : {
                        "POSITION" : 0,
                        "NORMAL" : 1,
                        "TEXCOORD_0" : 2
                    },
                    "indices" : 3,
                    "material" : 0
                }
            ]
        },
        {
            "name" : "BezierCurve",
            "primitives" : [
                {
                    "attributes" : {
                        "POSITION" : 4,
                        "NORMAL" : 5,
                        "TEXCOORD_0" : 6
                    },
                    "indices" : 7,
                    "material" : 1
                }
            ]
        }
    ],
    "accessors" : [
        {
            "bufferView" : 0,
            "componentType" : 5126,
            "count" : 480,
            "max" : [
                1.5230460166931152,
                11.409934043884277,
                1.0295599699020386
            ],
            "min" : [
                -1.5230458974838257,
                -1.5230461359024048,
                -2.9166669845581055
            ],
            "type" : "VEC3"
        },
        {
            "bufferView" : 1,
            "componentType" : 5126,
            "count" : 480,
            "type" : "VEC3"
        },
        {
            "bufferView" : 2,
            "componentType" : 5126,
            "count" : 480,
            "type" : "VEC2"
        },
        {
            "bufferView" : 3,
            "componentType" : 5123,
            "count" : 720,
            "type" : "SCALAR"
        },
        {
            "bufferView" : 4,
            "componentType" : 5126,
            "count" : 426,
            "max" : [
                1,
                0.24900540709495544,
                0.5548745393753052
            ],
            "min" : [
                -4.572574615478516,
                -3.473396062850952,
                -0.3466704785823822
            ],
            "type" : "VEC3"
        },
        {
            "bufferView" : 5,
            "componentType" : 5126,
            "count" : 426,
            "type" : "VEC3"
        },
        {
            "bufferView" : 6,
            "componentType" : 5126,
            "count" : 426,
            "type" : "VEC2"
        },
        {
            "bufferView" : 7,
            "componentType" : 5123,
            "count" : 636,
            "type" : "SCALAR"
        }
    ],
    "bufferViews" : [
        {
            "buffer" : 0,
            "byteLength" : 5760,
            "byteOffset" : 0
        },
        {
            "buffer" : 0,
            "byteLength" : 5760,
            "byteOffset" : 5760
        },
        {
            "buffer" : 0,
            "byteLength" : 3840,
            "byteOffset" : 11520
        },
        {
            "buffer" : 0,
            "byteLength" : 1440,
            "byteOffset" : 15360
        },
        {
            "buffer" : 0,
            "byteLength" : 5112,
            "byteOffset" : 16800
        },
        {
            "buffer" : 0,
            "byteLength" : 5112,
            "byteOffset" : 21912
        },
        {
            "buffer" : 0,
            "byteLength" : 3408,
            "byteOffset" : 27024
        },
        {
            "buffer" : 0,
            "byteLength" : 1272,
            "byteOffset" : 30432
        }
    ],
    "buffers" : [
        {
            "byteLength" : 31704,
            "uri" : "data:application/octet-stream;base64,"
        }
    ]
}
